<?xml version="1.0" encoding="UTF-8"?>
<svg width="32" height="32" viewBox="0 0 24 24" fill="none" xmlns="http://www.w3.org/2000/svg">
  <style>
    path { fill: #5eead4; }
    @media (prefers-color-scheme: dark) {
      path { fill: #5eead4; }
    }
    @media (prefers-color-scheme: light) {
      path { fill: #0d9488; }
    }
  </style>
  <path d="M12 5c.67 0 1.35.09 2 .26V3c0-.55-.45-1-1-1h-2c-.55 0-1 .45-1 1v2.26c.65-.17 1.33-.26 2-.26zm0 14c-.67 0-1.35-.09-2-.26V21c0 .55.45 1 1 1h2c.55 0 1-.45 1-1v-2.26c-.65.17-1.33.26-2 .26zm0-7c-1.1 0-2-.9-2-2s.9-2 2-2 2 .9 2 2-.9 2-2 2zm6-5.09V3c0-.55-.45-1-1-1h-2c-.55 0-1 .45-1 1v2.26c.65-.17 1.33-.26 2-.26.67 0 1.35.09 2 .26zM6 6.91V3c0-.55-.45-1-1-1H3c-.55 0-1 .45-1 1v3.91C2.65 6.74 3.33 6.65 4 6.65c.67 0 1.35.09 2 .26zM4 19c-.67 0-1.35-.09-2-.26V21c0 .55.45 1 1 1h2c.55 0 1-.45 1-1v-2.26c-.65.17-1.33.26-2 .26zm14 0c-.67 0-1.35-.09-2-.26V21c0 .55.45 1 1 1h2c.55 0 1-.45 1-1v-2.26c-.65.17-1.33.26-2 .26z"/>
</svg>
