<?xml version="1.0" encoding="UTF-8"?>
<svg width="32" height="32" viewBox="0 0 24 24" fill="none" xmlns="http://www.w3.org/2000/svg" stroke-width="2" stroke-linecap="round" stroke-linejoin="round">
  <style>
    path { stroke: #5eead4; }
    @media (prefers-color-scheme: dark) {
      path { stroke: #5eead4; }
    }
    @media (prefers-color-scheme: light) {
      path { stroke: #0d9488; }
    }
  </style>
  <path d="M12 5c.67 0 1.35.09 2 .26V3c0-.55-.45-1-1-1h-2c-.55 0-1 .45-1 1v2.26c.65-.17 1.33-.26 2-.26z"/>
  <path d="M18 6.91V3c0-.55-.45-1-1-1h-2c-.55 0-1 .45-1 1v2.26c.65-.17 1.33-.26 2-.26.67 0 1.35.09 2 .26z"/>
  <path d="M6 6.91V3c0-.55-.45-1-1-1H3c-.55 0-1 .45-1 1v3.91C2.65 6.74 3.33 6.65 4 6.65c.67 0 1.35.09 2 .26z"/>
  <path d="M4 19c-.67 0-1.35-.09-2-.26V21c0 .55.45 1 1 1h2c.55 0 1-.45 1-1v-2.26c-.65.17-1.33.26-2 .26z"/>
  <path d="M18 19c-.67 0-1.35-.09-2-.26V21c0 .55.45 1 1 1h2c.55 0 1-.45 1-1v-2.26c-.65.17-1.33.26-2 .26z"/>
  <path d="M12 19c-.67 0-1.35-.09-2-.26V21c0 .55.45 1 1 1h2c.55 0 1-.45 1-1v-2.26c-.65.17-1.33.26-2 .26z"/>
  <circle cx="12" cy="12" r="2"/>
  <path d="M12 8c2.76 0 5 2.24 5 5s-2.24 5-5 5-5-2.24-5-5 2.24-5 5-5z"/>
</svg>
