<svg xmlns="http://www.w3.org/2000/svg" xmlns:xlink="http://www.w3.org/1999/xlink" version="1.1" x="0px" y="0px" viewBox="0 0 100 125" enable-background="new 0 0 100 100" xml:space="preserve" style="transform: scaleX(-1)"><path fill="#FF69B4" d="M9.814,56.315l3.288,0.577l-0.034,0.436l-2.793,0.313l3.058,3.807h2.249l1.038,1.5l3.864,3.229l6.633,0.288l5.479-2.422  l-2.192-1.673l-4.095-0.808l4.16-0.229l3.626,1.959l4.902,6.749l2.019,5.422l0.75,8.594l3.519-7.613l-0.116-3.807l2.077,0.865  l-0.75-6.345l-1.168-3.965l3.793,2.811l0.981-3.862l4.438,2.046l-1.832-8.65l-4.396-7.527l-4.124-4.096l5.249,2.884l7.094,8.363  l2.364,10.045l-0.635,10.834l-5.81,9.493l-9.07,8.675l12.976-1.73l5.135-1.788l6.025-12.603l0.693-8.969l1.962,8.277L69.452,87.46  l5.651-3.922l3.807-5.306l-0.649-8.207l-2.522-7.913l-3.374-6.575l5.507,5.162l3.663,6.258l1.644,6.432l4.009-10.445l-2.937-9.318  l-6.955-6.913l8.08,4.163l4.811,6.625l-1.811-11.375L76.867,33.888l-17.69-7.08l-17.18-1.811l-7.575-5.796l-4.451-6.662l2.25-6.748  l-3.979,6.402l-1.384,5.461v10.198l-6.892,3.663l-5.134,5.94l0.433,7.7l-5.45,7.526V56.315z M24.435,58.479h4.326l3.525,0.562  l3.482,1.558l4.282,3.331l-4.585-2.465l-3.503-1.601l-3.504-0.52h-3.417L24.435,58.479z M23.007,55.948l5.061-0.411l4.607,0.347  l3.569,1.123l2.811,1.472l2.941,2.119l-2.855-1.384l-3.244-1.427l-3.396-0.823l-4.174-0.281l-4.585,0.324L23.007,55.948z   M19.46,46.626l0.933-2.58l4.169-0.734l3.03,0.718l-2.967,0.658l-2.938,2.249L19.5,49.312L19.46,46.626z"/></svg>